<?xml version="1.0" encoding="utf-8"?>
<!-- Generator: Adobe Illustrator 26.0.3, SVG Export Plug-In . SVG Version: 6.00 Build 0)  -->
<svg version="1.1" id="Layer_1" xmlns="http://www.w3.org/2000/svg" xmlns:xlink="http://www.w3.org/1999/xlink" x="0px" y="0px"
	width="25px" height="25px" viewBox="0 0 495 495" style="enable-background:new 0 0 495 495;" xml:space="preserve">
<style type="text/css">
	.st0{fill:#1A6FB0;}
	.st1{fill:#1E81CE;}
</style>
<g>
	<polygon class="st0" points="248,-2 248,38 455.5,38 455.5,453 248,453 248,493 495.5,493 495.5,-2 	"/>
	<polygon class="st1" points="40.5,453 40.5,38 248,38 248,-2 0.5,-2 0.5,493 248,493 248,453 	"/>
</g>
<path class="st1" d="M383,108.2L78.3,227c-9.9,3.8-9.3,18,0.9,21l77.4,22.9l28.9,91.7c3,9.6,15.2,12.5,22.2,5.3l40-40.9l78.6,57.7
	c9.6,7.1,23.3,1.8,25.7-9.9l52-248.8C406.6,113.9,394.6,103.7,383,108.2z M344.8,163.4L203.3,288.6c-1.4,1.2-2.3,3-2.5,4.8
	l-5.4,48.4c-0.2,1.6-2.4,1.8-2.9,0.3L170,269.9c-1-3.3,0.3-6.9,3.3-8.7l167.2-103.7C344.3,155.2,348.2,160.4,344.8,163.4z"/>
</svg>
