<?xml version="1.0" encoding="utf-8"?>
<!-- Generator: Adobe Illustrator 26.0.3, SVG Export Plug-In . SVG Version: 6.00 Build 0)  -->
<svg version="1.1" id="Layer_1" xmlns="http://www.w3.org/2000/svg" xmlns:xlink="http://www.w3.org/1999/xlink" x="0px" y="0px"
	width="25px" height="25px" viewBox="0 0 495 495" style="enable-background:new 0 0 495 495;" xml:space="preserve">
<style type="text/css">
	.st0{fill:#1A6FB0;}
	.st1{fill:#1E81CE;}
	.st2{fill:#FF0022;}
</style>
<g>
	<polygon class="st0" points="248,-2 248,38 455.5,38 455.5,453 248,453 248,493 495.5,493 495.5,-2 	"/>
	<polygon class="st1" points="40.5,453 40.5,38 248,38 248,-2 0.5,-2 0.5,493 248,493 248,453 	"/>
</g>
<path class="st2" d="M254.3,284.3c-0.5,0.3-1.1,0.3-1.6,0l-129.8-82.3c-14.2-9.4-18.1-28.4-8.7-42.6c9.2-13.8,27.7-17.9,41.9-9.3
	l95,60.2c0.5,0.3,1.1,0.3,1.6,0l85.3-59.4c14.1-9.5,33.3-5.9,42.9,8.2c9.4,13.8,6.1,32.4-7.5,42.2L254.3,284.3z"/>
<path class="st1" d="M364.4,360.7h-39.7l0,0V176.2c0-17,13.8-30.7,30.9-30.7l0,0c17.1,0,30.9,13.8,30.9,30.7v162.6
	C386.5,350.8,376.6,360.7,364.4,360.7z"/>
<path class="st1" d="M386,171.7c-0.1-0.6-0.1-1.2-0.2-1.9c-0.2-0.9-0.6-1.8-0.8-2.7c-0.3-1-0.6-2.1-1-3.1c-0.2-0.5-0.5-0.9-0.8-1.4
	c-0.6-1.4-1.4-2.7-2.2-3.9c-0.4-0.6-0.9-1.1-1.4-1.7c-0.8-1-1.6-2-2.5-2.9c-0.7-0.7-1.5-1.2-2.2-1.8c-0.8-0.7-1.6-1.3-2.5-1.9
	c-0.8-0.5-1.7-0.9-2.6-1.4c-0.9-0.5-1.8-1-2.7-1.4c-0.9-0.4-1.9-0.6-2.8-0.9c-1-0.3-1.9-0.6-2.9-0.8c-1.2-0.2-2.4-0.3-3.7-0.4
	c-0.8-0.1-1.6-0.2-2.3-0.2c-1.5,0-2.9,0.2-4.3,0.4c-0.6,0.1-1.2,0.1-1.7,0.2c-1.9,0.6-3.9,1.2-5.8,1.8c-0.5,0.2-1,0.6-1.5,0.8
	c-10.7,5-17.4,15.7-17.2,27.4v56.3c0,1.2,1.3,1.8,2.3,1.2l46.3-32.3C383,194.8,388,183.2,386,171.7L386,171.7z"/>
<path class="st1" d="M139.4,145.4L139.4,145.4c17.1,0,30.9,13.8,30.9,30.7v184.5l0,0h-39.7c-12.2,0-22-9.8-22-21.9V176.2
	C108.5,159.2,122.4,145.4,139.4,145.4z"/>
<path class="st2" d="M109,171.7c0.1-0.6,0.1-1.2,0.2-1.9c0.2-0.9,0.6-1.8,0.8-2.7c0.3-1,0.6-2.1,1-3.1c0.2-0.5,0.5-0.9,0.8-1.4
	c0.6-1.4,1.4-2.7,2.2-3.9c0.4-0.6,0.9-1.1,1.4-1.7c0.8-1,1.6-2,2.5-2.9c0.7-0.7,1.5-1.2,2.2-1.8c0.8-0.7,1.6-1.3,2.5-1.9
	c0.8-0.5,1.7-0.9,2.6-1.4c0.9-0.5,1.8-1,2.7-1.4c0.9-0.4,1.9-0.6,2.8-0.9s1.9-0.6,2.9-0.8c1.2-0.2,2.4-0.3,3.7-0.4
	c0.8-0.1,1.6-0.2,2.3-0.2c1.5,0,2.9,0.2,4.3,0.4c0.6,0.1,1.2,0.1,1.7,0.2c1,0.3,2,0.6,2.9,0.9c1,0.3,1.9,0.6,2.9,0.9
	c0.5,0.2,1,0.6,1.5,0.8c1.3,0.6,2.6,1.3,3.9,2.2c8.4,5.7,13.4,15.2,13.4,25.3v56.3c0,1.2-1.3,1.8-2.3,1.2l-46.3-32.3
	C112,194.8,107,183.2,109,171.7z"/>
</svg>
