<?xml version="1.0" encoding="utf-8"?>
<!-- Generator: Adobe Illustrator 26.0.3, SVG Export Plug-In . SVG Version: 6.00 Build 0)  -->
<svg version="1.1" id="Layer_1" xmlns="http://www.w3.org/2000/svg" xmlns:xlink="http://www.w3.org/1999/xlink" x="0px" y="0px"
	width="25px" height="25px" viewBox="0 0 495 495" style="enable-background:new 0 0 495 495;" xml:space="preserve">
<style type="text/css">
	.st0{fill:#1A6FB0;}
	.st1{fill:#1E81CE;}
	.st2{fill:#B57148;}
</style>
<g>
	<polygon class="st0" points="248,-2 248,38 455.5,38 455.5,453 248,453 248,493 495.5,493 495.5,-2 	"/>
	<polygon class="st1" points="40.5,453 40.5,38 248,38 248,-2 0.5,-2 0.5,493 248,493 248,453 	"/>
</g>
<g>
	<path class="st1" d="M59.5,118c-6,0-10.9-4.8-10.9-10.8V57.7c0-6,4.9-10.8,10.9-10.8h50.1c6,0,10.9,4.8,10.9,10.8
		s-4.9,10.8-10.9,10.8H70.4v38.8C70.4,113.2,65.6,118,59.5,118z"/>
	<path class="st1" d="M436.8,445.5h-50.1c-6,0-10.9-4.8-10.9-10.8s4.9-10.8,10.9-10.8h39.2v-38.8c0-6,4.9-10.8,10.9-10.8
		s10.9,4.8,10.9,10.8v49.6C447.7,440.7,442.8,445.5,436.8,445.5z"/>
</g>
<g>
	<ellipse class="st2" cx="244.7" cy="247.5" rx="58.7" ry="58.1"/>
	<path class="st2" d="M142.3,146.1v85.4h46c7-24.3,29.6-42.1,56.4-42.1s49.4,17.8,56.4,42.1h46v-85.4H142.3z"/>
</g>
<g>
	<path class="st1" d="M358,229.5v-85.4c0-6-4.9-10.8-10.9-10.8H142.3c-6,0-10.9,4.8-10.9,10.8v85.4v117.5c0,6,4.9,10.8,10.9,10.8
		h204.9c6,0,10.9-4.8,10.9-10.8v-65.8c0-6-4.9-10.8-10.9-10.8s-10.9,4.8-10.9,10.8v55H153.2v-95.9h22.2c-0.1,1.7-0.2,3.5-0.2,5.2
		c0,38,31.2,68.9,69.6,68.9s69.6-30.9,69.6-68.9c0-1.8-0.1-3.5-0.2-5.2h33.1C353.2,240.3,358,235.4,358,229.5z M244.7,292.8
		c-26.3,0-47.8-21.2-47.8-47.3c0-4.6,0.7-9.1,1.9-13.3c0.1-0.4,0.3-0.9,0.4-1.3c0.1-0.3,0.2-0.5,0.3-0.8c0.1-0.4,0.3-0.8,0.4-1.2
		c0.1-0.3,0.2-0.6,0.4-0.9c0.1-0.3,0.3-0.7,0.4-1c0.3-0.6,0.5-1.2,0.8-1.8c0.1-0.3,0.3-0.6,0.4-0.9c0.2-0.3,0.3-0.7,0.5-1
		c0.2-0.3,0.3-0.6,0.5-0.9c0.2-0.3,0.3-0.6,0.5-0.9c0.2-0.3,0.4-0.7,0.6-1c0.1-0.2,0.3-0.5,0.5-0.7c0.2-0.4,0.5-0.7,0.7-1.1
		c0.1-0.1,0.2-0.3,0.3-0.4c7.6-10.6,19.5-17.9,32.7-19.7c0.3,0,0.5-0.1,0.8-0.1c0.4,0,0.8-0.1,1.2-0.1c0.4,0,0.8-0.1,1.2-0.1
		c0.3,0,0.6,0,0.9-0.1c0.7,0,1.5-0.1,2.2-0.1c0.7,0,1.5,0,2.2,0.1c0.3,0,0.6,0,0.9,0.1c0.4,0,0.8,0.1,1.2,0.1c0.4,0,0.8,0.1,1.2,0.1
		c0.3,0,0.5,0.1,0.8,0.1c13.3,1.8,25.1,9,32.7,19.6c0.1,0.1,0.2,0.3,0.3,0.4c0.2,0.3,0.5,0.7,0.7,1c0.2,0.2,0.3,0.5,0.5,0.8
		c0.2,0.3,0.4,0.6,0.6,1c0.2,0.3,0.4,0.6,0.5,0.9c0.2,0.3,0.3,0.6,0.5,0.9c0.2,0.4,0.4,0.7,0.6,1.1c0.1,0.3,0.3,0.5,0.4,0.8
		c0.3,0.6,0.6,1.2,0.8,1.8c0.1,0.3,0.3,0.6,0.4,1c0.1,0.3,0.3,0.7,0.4,1c0.1,0.4,0.3,0.8,0.4,1.1c0.1,0.3,0.2,0.5,0.3,0.8
		c0.1,0.4,0.3,0.9,0.4,1.3c1.3,4.2,1.9,8.7,1.9,13.4C292.5,271.6,271.1,292.8,244.7,292.8z M336.3,218.7h-27.5
		c-0.1-0.2-0.2-0.4-0.3-0.6c-0.3-0.7-0.6-1.4-0.9-2c-0.2-0.4-0.4-0.7-0.6-1.1c-0.3-0.5-0.5-1-0.8-1.6c-0.2-0.4-0.4-0.8-0.6-1.2
		c-0.3-0.5-0.6-1-0.9-1.5c-0.4-0.6-0.8-1.3-1.2-1.9c-0.3-0.5-0.6-0.9-0.9-1.4c-0.3-0.5-0.7-1-1.1-1.5c-0.2-0.3-0.4-0.5-0.5-0.8
		c-0.4-0.6-0.8-1.1-1.2-1.7c-0.1-0.1-0.1-0.2-0.2-0.2c-11-14-27.4-23.8-46.1-26.1c-0.4-0.1-0.8-0.1-1.2-0.2c-0.5-0.1-1-0.1-1.4-0.1
		c-0.6-0.1-1.3-0.1-1.9-0.1c-0.4,0-0.7,0-1.1-0.1c-1,0-2.1-0.1-3.1-0.1c-1.1,0-2.1,0-3.1,0.1c-0.4,0-0.7,0-1.1,0.1
		c-0.6,0-1.3,0.1-1.9,0.1c-0.5,0-1,0.1-1.4,0.1c-0.4,0-0.8,0.1-1.2,0.2c-18.7,2.4-35.1,12.1-46.1,26.1c-0.1,0.1-0.1,0.1-0.2,0.2
		c-0.4,0.6-0.8,1.1-1.3,1.7c-0.2,0.2-0.3,0.5-0.5,0.7c-0.4,0.5-0.7,1-1.1,1.5c-0.3,0.4-0.5,0.8-0.8,1.2c-0.4,0.7-0.8,1.3-1.3,2
		c-0.3,0.5-0.6,1-0.9,1.5c-0.2,0.4-0.4,0.8-0.6,1.2c-0.3,0.5-0.5,1-0.8,1.5c-0.2,0.4-0.4,0.8-0.6,1.2c-0.3,0.6-0.6,1.3-0.9,2
		c-0.1,0.2-0.2,0.4-0.3,0.7h-27.5v-63.8h183.1L336.3,218.7L336.3,218.7z"/>
	<path class="st1" d="M302,189.6h21.2c6,0,10.9-4.8,10.9-10.8s-4.9-10.8-10.9-10.8H302c-6,0-10.9,4.8-10.9,10.8
		S295.9,189.6,302,189.6z"/>
</g>
<g>
	<g>
		<path class="st1" d="M152.1,120.5v-1.2c3.8-0.4,4.2-0.6,4.2-4.2v-17c0-3.7-0.4-3.9-4.2-4.2v-1.2h12.6v1.2
			c-3.9,0.4-4.3,0.6-4.3,4.2v17c0,3.7,0.4,3.8,4.3,4.2v1.2H152.1z"/>
		<path class="st1" d="M181.7,120.5v-1.2c2.7-0.3,3-0.6,3-3.5v-7.1c0-3-1.2-5-4.3-5c-1.9,0-3.7,1-5.2,2.2v10c0,3,0.3,3,3,3.3v1.2
			h-10.1v-1.2c3.1-0.3,3.4-0.5,3.4-3.3v-8.8c0-2.8-0.3-2.9-2.9-3.3v-1.1c2.3-0.3,4.6-0.9,6.6-1.7c0,1,0,2.4,0,3.4
			c0.9-0.6,2-1.2,3.2-2c1.3-0.8,2.5-1.3,3.9-1.3c3.7,0,6.1,2.5,6.1,6.7v8.1c0,2.9,0.3,3,3,3.3v1.2H181.7z"/>
		<path class="st1" d="M206.4,106.8c-0.8-2.5-2.1-4.2-4.9-4.2c-1.6,0-2.9,1.1-2.9,2.8c0,1.8,1.4,2.7,4,3.8c4,1.8,6,3,6,5.9
			c0,3.9-3.9,6-7.6,6c-2.4,0-4.6-0.7-5.6-1.2c-0.2-1.2-0.7-3.6-0.8-5l1.4-0.2c0.8,2.7,2.5,5,5.8,5c1.8,0,3.3-1.1,3.3-2.9
			c0-1.9-1.3-2.9-3.7-4c-3.3-1.5-5.9-2.8-5.9-5.9c0-3.1,2.9-5.5,7.3-5.5c2,0,3.6,0.4,4.5,0.6c0.1,1,0.5,3.7,0.7,4.8L206.4,106.8z"/>
		<path class="st1" d="M220.8,120.5c-0.8,0.4-1.5,0.6-2,0.6c-3,0-4.6-1.7-4.6-5.1v-12.5H211l-0.2-0.5l1.3-1.2h2.2v-3.6
			c0.9-0.9,2.2-2,3.1-2.8l0.7,0.1c-0.1,1.8-0.1,4.3-0.1,6.3h5.3c0.4,0.4,0.3,1.4-0.3,1.8h-5.1v11c0,3.5,1.5,4.1,2.7,4.1
			c1.1,0,2.2-0.4,2.9-0.7l0.4,1.1L220.8,120.5z"/>
		<path class="st1" d="M240.9,121c-0.7,0-1.7-0.3-2.2-0.8c-0.6-0.6-0.9-1.2-1.1-1.9c-1.9,1.2-4.2,2.7-5.6,2.7
			c-3.3,0-5.7-2.5-5.7-5.3c0-2.1,1.3-3.5,3.8-4.3c2.9-0.9,6.4-2,7.4-2.8v-0.9c0-3-1.7-4.8-4.1-4.8c-1.1,0-1.7,0.5-2.2,1
			c-0.5,0.6-0.8,1.5-1.3,2.8c-0.2,0.7-0.7,1-1.4,1c-0.9,0-2.1-0.9-2.1-1.9c0-0.6,0.6-1.1,1.5-1.7c1.4-0.9,4.1-2.5,6.7-3
			c1.4,0,2.9,0.4,3.9,1.2c1.6,1.3,2.4,2.7,2.4,5v8.3c0,2,0.8,2.6,1.6,2.6c0.6,0,1.2-0.2,1.7-0.5l0.5,1.2L240.9,121z M237.5,110.2
			c-1,0.5-3.3,1.4-4.4,1.8c-1.8,0.7-2.9,1.5-2.9,3.1c0,2.3,1.9,3.3,3.4,3.3c1.2,0,2.9-0.7,3.8-1.5
			C237.5,114.8,237.5,112.2,237.5,110.2z"/>
		<path class="st1" d="M253.5,114.2c-1.1,0.8-1.5,1.6-1.5,2.1c0,0.8,0.8,1.6,2.9,1.6c1.7,0,3.7,0,5.2,0c3,0,6.8,0.9,6.8,5.1
			c0,4.5-5.8,8.7-12,8.7c-5.3,0-8.1-2.8-8.2-5.4c0-0.9,0.4-1.8,1.2-2.4c0.9-0.9,2.8-2.3,3.8-3.1c-1.7-0.4-2.9-1.4-3.5-2.3
			c-0.4-0.6-0.6-1.4-0.6-1.8c1.8-0.6,3.4-1.8,4.3-3L253.5,114.2z M255.7,114.7c-4.4,0-8-2.4-8-6.5c0-4.9,4.8-7.2,8.4-7.2
			c1.5,0,3.1,0.4,4.5,1.1c2.2,0,5-0.3,6.3-0.6l0.3,0.4c-0.3,0.7-1,1.9-1.7,2.3c-0.7,0-2.2-0.2-2.9-0.2c0.8,1,1.4,2.4,1.4,3.9
			C264,112.5,259.7,114.7,255.7,114.7z M256.8,121c-2.3,0-3.3,0.3-4.2,0.9c-1.3,1-2.2,2.3-2.2,3.5c0,2.4,2.7,4.1,6.3,4.1
			c4.4,0,7-2.1,7-4.8c0-1.5-0.7-2.6-2.1-3.1C260.4,121.1,258.8,121,256.8,121z M255.7,102.4c-2.1,0-4,1.8-4,5.1
			c0,3.4,1.9,5.7,4.4,5.7c2.1-0.1,3.9-1.7,3.9-5.1C260.1,104.8,258.3,102.4,255.7,102.4z"/>
		<path class="st1" d="M279.6,120.5h-10.8v-1.2c3-0.3,3.2-0.5,3.2-3.3v-8.9c0-2.8-0.2-3-2.9-3.3v-1.1c2.3-0.3,4.4-0.9,6.6-1.8
			c0,1.4,0,3.3,0,4.7c1.6-2.2,3.6-4.6,5.9-4.6c1.7,0,2.7,1,2.7,2.1c0,1-0.7,1.9-1.6,2.4c-0.5,0.3-0.8,0.2-1.2-0.1
			c-0.7-0.6-1.3-1.1-2.1-1.1c-1,0-2.7,1.3-3.7,3.5v8.1c0,2.8,0.2,3,3.8,3.3V120.5z"/>
		<path class="st1" d="M301.3,121c-0.7,0-1.7-0.3-2.2-0.8c-0.6-0.6-0.9-1.2-1.1-1.9c-1.9,1.2-4.2,2.7-5.6,2.7
			c-3.3,0-5.7-2.5-5.7-5.3c0-2.1,1.3-3.5,3.8-4.3c2.9-0.9,6.4-2,7.4-2.8v-0.9c0-3-1.7-4.8-4.1-4.8c-1.1,0-1.7,0.5-2.2,1
			c-0.5,0.6-0.8,1.5-1.3,2.8c-0.2,0.7-0.7,1-1.4,1c-0.9,0-2.1-0.9-2.1-1.9c0-0.6,0.6-1.1,1.5-1.7c1.4-0.9,4.1-2.5,6.7-3
			c1.4,0,2.9,0.4,3.9,1.2c1.6,1.3,2.4,2.7,2.4,5v8.3c0,2,0.8,2.6,1.6,2.6c0.6,0,1.2-0.2,1.7-0.5l0.5,1.2L301.3,121z M297.9,110.2
			c-1,0.5-3.3,1.4-4.4,1.8c-1.8,0.7-2.9,1.5-2.9,3.1c0,2.3,1.9,3.3,3.4,3.3c1.2,0,2.9-0.7,3.8-1.5
			C297.9,114.8,297.9,112.2,297.9,110.2z"/>
		<path class="st1" d="M332.9,120.5v-1.2c2.8-0.3,3.1-0.4,3.1-3.4v-7.2c0-3-1.1-5-4-5c-1.8,0-3.4,0.9-5.2,2.2c0,0.5,0.1,1,0.1,1.8
			v8.3c0,2.7,0.4,2.9,3,3.2v1.2h-10v-1.2c2.9-0.3,3.3-0.4,3.3-3.3v-7.4c0-3.2-1.1-4.9-3.9-4.9c-1.9,0-3.7,1.2-5.2,2.2V116
			c0,2.8,0.3,3,3,3.3v1.2h-10.1v-1.2c3.1-0.3,3.4-0.4,3.4-3.3v-8.9c0-2.7-0.2-2.9-2.8-3.3v-1.1c2.2-0.3,4.4-0.9,6.5-1.7
			c0,1,0,2.4,0,3.5c1-0.7,2-1.4,3.5-2.2c1.2-0.7,2.2-1.1,3.7-1.1c2.2,0,4.2,1.3,5.1,3.5c1.3-0.9,2.5-1.7,3.7-2.4
			c1-0.6,2.3-1.1,3.7-1.1c3.7,0,5.9,2.4,5.9,6.6v8.3c0,2.9,0.3,3,3,3.3v1.2H332.9z"/>
	</g>
</g>
</svg>
